<svg fill="none" height="36" viewBox="0 0 116 36" width="116" xmlns="http://www.w3.org/2000/svg" xmlns:xlink="http://www.w3.org/1999/xlink"><clipPath id="a"><path d="m0 0h116v36h-116z"/></clipPath><g clip-path="url(#a)"><g fill="#fcfbfd"><path d="m15.4664 3.533c1.0662 0 1.8248-.73097 1.8248-1.7665 0-1.015231-.7586-1.7665-1.8248-1.7665-1.0661 0-1.8247.751269-1.8247 1.7665 0 1.03553.7586 1.7665 1.8247 1.7665z"/><path d="m16.9837 4.97461h-3.0345v10.39599h3.0345z"/><path clip-rule="evenodd" d="m4.96177 15.6954c1.47622 0 2.58339-.5888 3.32151-1.6446h.20503v1.3198h3.03449v-15.066035h-3.03449v5.969545h-.20503c-.73812-1.03553-1.88629-1.62436-3.34202-1.62436-2.84994 0-4.94126 2.2335-4.94126 5.52285 0 3.3096 2.07082 5.5228 4.96177 5.5228zm.86113-2.5583c-1.59925 0-2.78843-1.2792-2.78843-2.9645 0-1.66499 1.16868-2.94417 2.78843-2.94417s2.76793 1.27918 2.76793 2.94417c0 1.665-1.14818 2.9645-2.76793 2.9645z" fill-rule="evenodd"/><path clip-rule="evenodd" d="m30.4642 15.2487c0 3.2082-2.2144 5.1168-5.7204 5.1168-3.055 0-5.1668-1.3198-5.6794-3.6548l2.932-.5686c.3895 1.1371 1.3532 1.8274 2.6654 1.8274 1.6812 0 2.7679-1.0964 2.7679-2.802v-1.1573h-.205c-.8407.9543-1.9068 1.5025-3.3215 1.5025-2.9115 0-4.9618-2.132-4.9618-5.3401 0-3.35028 2.0298-5.50256 4.9413-5.50256 1.5172 0 2.6039.60914 3.424 1.62437h.205v-1.3198h2.9525zm-8.4883-5.0761c0 1.665 1.1686 2.8832 2.7884 2.8832 1.6197 0 2.7679-1.2182 2.7679-2.8832 0-1.7056-1.1482-2.94418-2.7679-2.94418-1.6198 0-2.7884 1.23858-2.7884 2.94418z" fill-rule="evenodd"/><path d="m34.4078 3.533c1.0662 0 1.8248-.73097 1.8248-1.7665 0-1.015231-.7586-1.7665-1.8248-1.7665-1.0661 0-1.8248.751269-1.8248 1.7665 0 1.03553.7587 1.7665 1.8248 1.7665z"/><path d="m44.6693 15.3706c-.5945.203-1.4557.3248-2.0503.3248-2.1118 0-3.465-1.4822-3.465-3.6751v-4.85277h-1.4762v-2.19289h1.5582l.5946-3.28934h2.3784l-.0205 3.28934h2.3988v2.19289h-2.3988v4.73097c0 .8731.533 1.4619 1.3942 1.4619.287 0 .7381-.0609 1.0866-.1421z"/><path clip-rule="evenodd" d="m49.5762 15.6345c1.4967 0 2.7064-.5482 3.3625-1.5837h.205v1.3198h3.0345v-6.86296c0-2.35533-1.9068-3.85786-4.9003-3.85786-2.9524 0-4.8592 1.46193-4.8592 3.73604h2.9729c-.0205-1.03553.7381-1.64467 1.8453-1.64467 1.2097 0 1.9068.67005 1.9068 1.66497v.4264l-2.2348.26396c-3.301.40609-4.9618 1.60402-4.9618 3.55322 0 1.8681 1.4762 2.9848 3.6291 2.9848zm1.0046-1.9695c-1.0456 0-1.6607-.4873-1.6607-1.2589 0-.7107.5741-1.2995 2.0708-1.4822l2.1528-.264v.731c0 1.2995-1.0456 2.2741-2.5629 2.2741z" fill-rule="evenodd"/><path d="m61.3709.304565v15.066035h-3.0344v-15.066035z"/><path d="m35.9251 15.3706v-10.39599h-3.0345v10.39599z"/><path d="m3.48552 35.6751v-5.9289c0-1.3401.77912-2.2132 1.9683-2.2132 1.14818 0 1.88629.8731 1.88629 2.2132v5.9289h3.05499v-5.9289c0-1.2995.8201-2.2132 2.0093-2.2132 1.1687.0203 1.9683.9543 1.9683 2.2132v5.9289h3.0345v-6.4365c0-2.5178-1.6608-4.264-3.9776-4.264-1.4968 0-2.6654.7513-3.301 1.9493h-.20509c-.55358-1.1777-1.84528-1.9696-3.219-1.9696-1.3327 0-2.43987.7513-3.03446 1.868h-.20504v-1.5431h-3.01396v10.3959z"/><path clip-rule="evenodd" d="m25.8881 34.3553c-.6561 1.0356-1.8658 1.5838-3.3625 1.5838-2.1528 0-3.6291-1.1168-3.6291-2.9848 0-1.9492 1.6608-3.1472 4.9618-3.5533l2.2349-.2639v-.4264c0-.995-.6972-1.665-1.9068-1.665-1.1072 0-1.8658.6091-1.8453 1.6447h-2.973c0-2.2742 1.9068-3.7361 4.8593-3.7361 2.9934 0 4.9002 1.5026 4.9002 3.8579v6.8629h-3.0344v-1.3198zm-4.0186-1.6446c0 .7715.6151 1.2588 1.6608 1.2588 1.5172 0 2.5629-.9746 2.5629-2.2741v-.7309l-2.1529.2639c-1.4967.1828-2.0708.7716-2.0708 1.4823z" fill-rule="evenodd"/><path d="m34.3409 35.6751v-5.8477c0-1.3198 1.0046-2.2741 2.2143-2.2741 1.2302 0 1.9683.8934 1.9683 2.1726v5.9492h3.0345v-6.3756c0-2.4975-1.5788-4.3249-3.9571-4.3249-1.2712 0-2.2759.5889-3.055 1.7665h-.205v-1.4619h-3.0345v10.3959z"/><path d="m50.7935 31.1269v-5.8477h3.0345v10.3959h-3.0345v-1.4619h-.205c-.7791 1.1777-1.7838 1.7665-3.055 1.7665-2.3783 0-3.9571-1.8274-3.9571-4.3249v-6.3756h3.0345v5.9492c0 1.2792.7381 2.1726 1.9683 2.1726 1.2097 0 2.2143-.9543 2.2143-2.2741z"/><path d="m60.0906 35.6751v-8.203h2.3579v-2.1929h-2.3579v-1.1371c0-.7715.5331-1.2792 1.3532-1.2792.3486 0 .6971.061 1.0047.1422v-2.396c-.5946-.1827-1.3122-.3248-2.0298-.3248-2.0094 0-3.3626 1.5025-3.3626 3.7563v1.2386h-1.4762v2.1929h1.4762v8.203z"/><path clip-rule="evenodd" d="m70.4184 34.3553c-.6561 1.0356-1.8658 1.5838-3.3625 1.5838-2.1528 0-3.6291-1.1168-3.6291-2.9848 0-1.9492 1.6608-3.1472 4.9618-3.5533l2.2349-.2639v-.4264c0-.995-.6971-1.665-1.9068-1.665-1.1072 0-1.8658.6091-1.8453 1.6447h-2.973c0-2.2742 1.9068-3.7361 4.8593-3.7361 2.9934 0 4.9002 1.5026 4.9002 3.8579v6.8629h-3.0344v-1.3198zm-4.0186-1.6446c0 .7715.6151 1.2588 1.6608 1.2588 1.5172 0 2.5629-.9746 2.5629-2.2741v-.7309l-2.1529.2639c-1.4967.1828-2.0708.7716-2.0708 1.4823z" fill-rule="evenodd"/><path d="m78.8712 35.6751v-4.4264h.205l3.424 4.4264h3.6906l-4.4492-5.401 4.3672-4.9949h-3.6701l-3.3625 4.0406h-.205v-8.7107h-3.0345v15.066z"/><path d="m93.7047 35.675c-.5946.2031-1.4557.3249-2.0503.3249-2.1118 0-3.465-1.4822-3.465-3.6751v-4.8528h-1.4762v-2.1929h1.5582l.5946-3.2894h2.3784l-.0205 3.2894h2.3988v2.1929h-2.3988v4.7309c0 .8731.533 1.462 1.3942 1.462.287 0 .7381-.0609 1.0866-.1422z"/><path d="m102.632 25.2792v5.8477c0 1.3198-1.005 2.2741-2.214 2.2741-1.2304 0-1.9685-.8934-1.9685-2.1726v-5.9492h-3.0345v6.3756c0 2.4975 1.5787 4.3249 3.9571 4.3249 1.2709 0 2.2759-.5888 3.0549-1.7665h.205v1.4619h3.035v-10.3959z"/><path d="m111.048 30.3553v5.3197h-3.035v-10.3958h2.994v1.4213h.225c.451-.9746 1.476-1.6245 2.583-1.6245.431 0 .862.1016 1.19.264v2.7006c-.595-.264-1.292-.3858-1.723-.3858-1.332 0-2.234 1.0965-2.234 2.7005z"/></g><path d="m116 5v6h-48v-6z" fill="#6e9eff"/></g></svg>